<svg height='100px' width='100px'  fill="#ff7043" xmlns="http://www.w3.org/2000/svg" xmlns:xlink="http://www.w3.org/1999/xlink" version="1.1" x="0px" y="0px" viewBox="0 0 100 100" enable-background="new 0 0 100 100" xml:space="preserve"><path d="M5,5v90h90V5H5z M62.5,25.512h18v6.68h-18V25.512z M75.684,61.253c0,0.528-0.117,1.04-0.348,1.535s-0.529,0.94-0.892,1.335  c-0.362,0.397-0.792,0.711-1.287,0.94c-0.493,0.232-1.023,0.347-1.583,0.347c-0.595,0-1.148-0.107-1.658-0.32  c-0.514-0.215-0.959-0.512-1.338-0.892c-0.379-0.379-0.685-0.824-0.916-1.336c-0.23-0.511-0.347-1.047-0.347-1.609  c0-1.188,0.421-2.186,1.263-2.995c0.842-0.808,1.823-1.213,2.945-1.213c0.562,0,1.09,0.107,1.586,0.322  c0.494,0.216,0.932,0.512,1.311,0.891c0.379,0.381,0.686,0.826,0.916,1.337S75.684,60.659,75.684,61.253z M40.987,80.624  l-4.016,4.018l-8.459-8.51l-8.508,8.51l-4.018-4.018l8.51-8.457l-8.404-8.457l4.018-4.018l8.402,8.457l8.459-8.457l4.016,4.018  l-8.509,8.457L40.987,80.624z M40.987,31.147h-9.853V41h-5.298v-9.853h-9.85v-5.295h9.85V16h5.298v9.852h9.853V31.147z   M75.336,83.282c-0.23,0.496-0.529,0.941-0.892,1.338c-0.362,0.396-0.792,0.717-1.287,0.965c-0.493,0.248-1.023,0.371-1.583,0.371  c-0.595,0-1.148-0.115-1.658-0.347c-0.514-0.229-0.959-0.536-1.338-0.915c-0.379-0.38-0.685-0.826-0.916-1.337  c-0.23-0.512-0.347-1.031-0.347-1.559c0-0.594,0.116-1.138,0.347-1.634c0.231-0.496,0.537-0.933,0.916-1.311  c0.379-0.379,0.824-0.677,1.338-0.893c0.51-0.213,1.047-0.32,1.607-0.32c0.562,0,1.09,0.107,1.586,0.32  c0.494,0.216,0.932,0.514,1.311,0.893c0.379,0.378,0.686,0.815,0.916,1.311s0.348,1.04,0.348,1.634  C75.684,82.293,75.566,82.789,75.336,83.282z M84,74.173H59v-5.295h25V74.173z"></path></svg>